<?xml version="1.0" encoding="UTF-8" standalone="no"?>
<svg xmlns:dc="http://purl.org/dc/elements/1.1/" xmlns:cc="http://creativecommons.org/ns#" xmlns:rdf="http://www.w3.org/1999/02/22-rdf-syntax-ns#" xmlns:svg="http://www.w3.org/2000/svg" xmlns="http://www.w3.org/2000/svg" xmlns:sodipodi="http://sodipodi.sourceforge.net/DTD/sodipodi-0.dtd" xmlns:inkscape="http://www.inkscape.org/namespaces/inkscape" width="12pt" height="12pt" viewBox="0 0 12 12" version="1.1" id="svg7" sodipodi:docname="Triskelion_(black_and_white).svg" inkscape:version="0.92.5 (2060ec1f9f, 2020-04-08)">
  <metadata id="metadata13">
    <rdf:RDF>
      <cc:Work rdf:about="">
        <dc:format>image/svg+xml</dc:format>
        <dc:type rdf:resource="http://purl.org/dc/dcmitype/StillImage"/>
        <dc:title/>
      </cc:Work>
    </rdf:RDF>
  </metadata>
  <defs id="defs11"/>
  <sodipodi:namedview pagecolor="#ffffff" bordercolor="#666666" borderopacity="1" objecttolerance="10" gridtolerance="10" guidetolerance="10" inkscape:pageopacity="0" inkscape:pageshadow="2" inkscape:window-width="1920" inkscape:window-height="1009" id="namedview9" showgrid="false" inkscape:snap-center="true" inkscape:snap-object-midpoints="true" inkscape:zoom="59" inkscape:cx="5.3898303" inkscape:cy="3.932203" inkscape:window-x="0" inkscape:window-y="0" inkscape:window-maximized="1" inkscape:current-layer="svg7"/>
  <g id="g872">
    <path style="fill:#000000;fill-opacity:1;stroke:#000000;stroke-width:1.79999995;stroke-linecap:butt;stroke-linejoin:miter;stroke-miterlimit:10;stroke-dasharray:none;stroke-opacity:1" d="M 11,6 C 11,3.2382813 8.7617182,1.0000001 6,1.0000001 3.2382813,1.0000001 1.0000001,3.2382813 1.0000001,6 c 0,2.7617186 2.2382812,5 4.9999999,5 2.7617182,0 5,-2.2382814 5,-5 z m 0,0" id="path4-36" inkscape:connector-curvature="0"/>
    <path style="fill:#000000;fill-opacity:1;stroke:#fffffe;stroke-width:0.60000002;stroke-linecap:butt;stroke-linejoin:miter;stroke-miterlimit:10;stroke-dasharray:none;stroke-opacity:1" d="M 11,6 C 11,3.2382812 8.7617188,1 6,1 3.2382812,1 1,3.2382812 1,6 c 0,2.7617188 2.2382812,5 5,5 2.7617188,0 5,-2.2382812 5,-5 z m 0,0" id="path4" inkscape:connector-curvature="0"/>
    <path sodipodi:nodetypes="csc" style="fill:none;stroke:#ffffff;stroke-width:0.60000002;stroke-linecap:butt;stroke-linejoin:miter;stroke-miterlimit:10;stroke-dasharray:none;stroke-opacity:1" d="M 6,1.0000001 C 4.61914,1.0000001 3.5,2.1191406 3.5,3.5 3.5,4.8808593 4.61914,6 6,6" id="path4-3" inkscape:connector-curvature="0"/>
    <path sodipodi:nodetypes="cscsc" style="fill:none;stroke:#ffffff;stroke-width:0.60000002;stroke-linecap:butt;stroke-linejoin:miter;stroke-miterlimit:10;stroke-dasharray:none;stroke-opacity:1" d="M 1.6698731,8.4999999 C 2.3603031,9.6958597 3.8890772,10.105493 5.0849365,9.4150634 6.2807958,8.7246338 6.69043,7.1958597 6,5.9999999 6.69043,4.8041401 8.2192041,4.3945065 9.4150637,5.0849369 10.610923,5.7753661 11.020557,7.3041401 10.330127,8.4999999" id="path4-3-2" inkscape:connector-curvature="0"/>
    <path inkscape:connector-curvature="0" style="fill:#ffffff;fill-opacity:1;fill-rule:nonzero;stroke:none;stroke-width:0.66761273;stroke-miterlimit:10;stroke-dasharray:none" d="m 6.4998405,3.5 c 0,-0.2759989 -0.2238417,-0.4998405 -0.499841,-0.4998405 -0.2759985,0 -0.49984,0.2238416 -0.49984,0.4998405 0,0.2759989 0.2238415,0.4998405 0.49984,0.4998405 0.2759993,0 0.499841,-0.2238416 0.499841,-0.4998405" id="path2-3-36"/>
    <path inkscape:connector-curvature="0" style="fill:#ffffff;fill-opacity:1;fill-rule:nonzero;stroke:none;stroke-width:0.66761273;stroke-miterlimit:10;stroke-dasharray:none" d="m 4.3347771,7.2499999 c 0,-0.2759989 -0.2238417,-0.4998405 -0.499841,-0.4998405 -0.2759985,0 -0.49984,0.2238416 -0.49984,0.4998405 0,0.2759989 0.2238415,0.4998405 0.49984,0.4998405 0.2759993,0 0.499841,-0.2238416 0.499841,-0.4998405" id="path2-3-36-7"/>
    <path inkscape:connector-curvature="0" style="fill:#ffffff;fill-opacity:1;fill-rule:nonzero;stroke:none;stroke-width:0.66761273;stroke-miterlimit:10;stroke-dasharray:none" d="m 8.6649039,7.2499999 c 0,-0.2759989 -0.2238417,-0.4998405 -0.4998411,-0.4998405 -0.2759984,0 -0.4998399,0.2238416 -0.4998399,0.4998405 0,0.2759989 0.2238415,0.4998405 0.4998399,0.4998405 0.2759994,0 0.4998411,-0.2238416 0.4998411,-0.4998405" id="path2-3-36-5"/>
  </g>
</svg>